# xmcd
# 
# Track frame offsets:
#     150
#     11570
#     33177
#     62150
#     87122
#     111852
#     144427
#     161540
#     196032
#     218805
#     244684
#     273215
#     295977
#     300765
#     337990
# 
# Disc length: 4570
# 
# Revision: 13
# Processed by: cddbd v1.5.2PL0 Copyright (c) Steve Scherf et al.
# Submitted via: fre:ac v1.0.31
# 
DISCID=c111d80f
DTITLE=globe - 8years
DYEAR=1997
DGENRE=JPop
TTITLE0=overdose
TTITLE1=DEGENERATE
TTITLE2=FACES PLACES
TTITLE3=Is this love
TTITLE4=So far away from home (Beautiful Journey)
TTITLE5=a temporary girl
TTITLE6=Because I LOVE the NIGHT
TTITLE7=Anytime smokin' cigarette
TTITLE8=Watch the movie ?
TTITLE9=a picture on my mind
TTITLE10=FACE
TTITLE11=Can't Stop Fallin' in Love
TTITLE12=can't stop PIANO SOLO
TTITLE13=FACES PLACES (REMIX)
TTITLE14=Data Track
EXTD=Globe is a Japanese Pop group (J-Pop) headed up by superproducer Komuro Tetsuya. They are a true creative force in a market dominated by idol stars and regurgitated rock. "Faces Places" is their second album. The vocals are done by the other two memb
EXTD=ers of the group, "Keiko" and Marc Panther. The wierd capitalization used for the track titles is as the titles appeared on the CD case. YEAR: 1997
EXTT0=
EXTT1=
EXTT2=
EXTT3=
EXTT4=
EXTT5=
EXTT6=
EXTT7=
EXTT8=
EXTT9=
EXTT10=
EXTT11=
EXTT12=
EXTT13=
EXTT14=
PLAYORDER=
